<?xml version="1.0" encoding="UTF-8"?>
<svg id="Layer_2" data-name="Layer 2" xmlns="http://www.w3.org/2000/svg" viewBox="0 0 512 512">
  <defs>
    <style>
      .cls-1 {
        fill: none;
      }

      .cls-2 {
        fill: #f7fbfe;
      }
    </style>
  </defs>
  <g id="BG">
    <rect class="cls-1" width="512" height="512"/>
  </g>
  <g id="Icon">
    <g>
      <path class="cls-2" d="M271.37,337.01c29.18-17.12,49.36-45.88,56.82-81.01,6.77-31.85.58-58.94-17.41-76.41-6.06-.86-12.17-1.06-18.31-.62,22.39,14.8,31.33,42.69,24.03,77.04-7.63,35.89-29.72,64.59-60.67,78.9l-.49.27c-.25.14-26.72,14.21-61.97,8.28l-3.95-.66.11-.27c-38.71-8.56-56.73-41.35-47.13-86.52,9.84-46.31,43.19-79.61,87.14-87.12,3.55-2.14,10.68-6.31,20.45-10.51-58.97.09-106.9,39.31-119.29,97.63-12.41,58.39,18.94,97.63,78,97.63,8.6,0,17.46-.93,26.34-2.76l.9-.19.43.09c13.12-2.89,23.82-7.56,31.37-11.59l3.65-2.17Z"/>
      <path class="cls-2" d="M303.31,158.37c-8.56,0-17.39.93-26.24,2.76l-.87.18-.29-.06c-13.32,2.89-24.2,7.66-31.82,11.75l-3.33,1.98c-29.27,17.16-49.49,45.93-56.95,81.02-6.79,31.93-.5,59.09,17.71,76.59,6,.81,12.06,1,18.16.54-22.5-14.78-31.49-42.7-24.17-77.14,7.82-36.78,30.69-65.89,62.75-79.87l.79-.36c7-3.13,25.87-10.18,50.58-8.16l1.79.15c2.5.24,4.78.53,7.13.92l3.86.65-.05.13c38.8,8.52,56.86,41.32,47.25,86.55-9.83,46.24-43.11,79.52-86.97,87.1-3.55,2.14-10.67,6.32-20.43,10.53,58.88-.18,106.71-39.37,119.1-97.63,12.41-58.39-18.94-97.63-78-97.63Z"/>
    </g>
  </g>
</svg>