<?xml version="1.0" encoding="UTF-8"?>
<svg id="Layer_2" xmlns="http://www.w3.org/2000/svg" version="1.1" viewBox="0 0 512 512">
  <!-- Generator: Adobe Illustrator 29.1.0, SVG Export Plug-In . SVG Version: 2.1.0 Build 142)  -->
  <defs>
    <style>
      .st0 {
        fill: #2b2c2b;
      }

      .st1 {
        fill: none;
      }
    </style>
  </defs>
  <g id="Background">
    <rect class="st1" y="128" width="512" height="256"/>
  </g>
  <g id="Logo">
    <g>
      <path class="st0" d="M125.3,276.5h2.9c1.2,0,2.1-.8,2.3-2l1.4-7.9h19.3l-1.7,9.9h2.9c1.1,0,2.1-.8,2.3-2l6-33.8h-5.6c-15.3,0-24.9,8-27.6,23l-2.3,12.8h.1ZM153.4,245.3h1.6l-3,16.9h-19.3c2.3-10.9,9.3-16.9,20.6-16.9h0Z"/>
      <path class="st0" d="M161.6,276.5c1.1,0,2.1-.8,2.3-2l3.6-20.2c1.1-6.1,5.6-9.6,12.3-9.6s9.5,2.8,8.6,7.9c-.9,5.2-5.2,7.8-11.5,7.8h-1.3l-.8,4.5h1.3c5,0,7.2,1.5,8.1,5.4l1.1,4.4c.3,1.1,1.2,1.8,2.3,1.8h3.5l-2.4-8.9c-.8-3-3.2-4.8-6.4-4.8v-.5c4.8,0,9.8-3.5,11-10,1.3-7.5-3.6-12.2-12.7-12.2s-16.4,5.6-17.9,14.2l-3.9,22.1h2.9-.1Z"/>
      <path class="st0" d="M202.6,276.5h2.8c1.2,0,2.1-.8,2.3-2l5.2-29.4h11.2c1.2,0,2.1-.8,2.3-2l.4-2.5h-31.2l-.8,4.4h13.2l-5.5,31.3h0v.2Z"/>
      <path class="st0" d="M246.9,266.7c-.7,3.9-4.4,5.9-11.7,5.9s-9.3-1.6-11.7-2.5l-.8,4.9c3.5,1.4,6.7,2,12,2,9.7,0,15.9-3.5,17.1-10.6,2.6-14.6-23.2-6.2-21.5-15.9.7-3.9,4.4-6,11.7-6s9.3,1.6,11.7,2.5l.8-4.9c-3.6-1.4-6.8-2-12-2-9.7,0-15.9,3.5-17.1,10.6-2.6,14.6,23.2,6.2,21.5,15.9h0Z"/>
      <path class="st0" d="M264.5,274.5l2.5-14.3h17.9c1.2,0,2.1-.8,2.3-2l.2-1.3h-19.9l2.3-12.9h20.8c1.2,0,2.1-.8,2.3-2l.2-1.4h-22.3c-2.5,0-4.4,1.6-4.8,4.1l-1.5,8.6c-.5,2.9-.9,4.9,2,4.9h.3v.5c-2,0-3.5,1.3-3.9,3.2l-2.5,14.5h1.6c1.2,0,2.1-.8,2.3-2h.2Z"/>
      <path class="st0" d="M342.3,274.6l3.6-20.2c1.2-7,6.2-10.8,13.7-10.8s10.6,2.9,9.6,8.5c-1,5.7-5.6,8.4-12.7,8.4h-1.5l-.6,3.3h1.6c6.1,0,8.7,1.7,9.6,6.4l.8,4.4c.2,1.1,1.2,2,2.3,2h1.9l-2.1-9.2c-.7-3.3-3.2-5.2-6.6-5.2v-.5c5.5,0,9.9-3.9,10.9-9.7,1.3-7.4-3.5-11.8-12.6-11.8s-16.4,5.6-17.9,14.2l-3.9,22.1h1.6c1.1,0,2.1-.8,2.3-1.9h0Z"/>
      <path class="st0" d="M422.1,240.2c-7,0-13.8,3.5-15.1,7.8h-.5c.3-4.4-5.1-7.8-12-7.8s-16.8,5.9-18.4,14.9l-3.8,21.4h1.6c1.2,0,2.1-.8,2.3-2l3.4-19.6c1.2-7.1,6.6-11.4,13.9-11.4s11.3,4.4,10.1,11.4l-3.8,21.6h1.6c1.2,0,2.1-.8,2.3-2l3.5-19.6c1.2-7.1,6.6-11.4,13.9-11.4s11.3,4.4,10.1,11.4l-5.1,25.8H83.5l3.8-23.8h.3v.4c-1.1,6,6.6,9.9,15.4,9.9,14.2,0,24.7-7,27.1-20.2,2.4-13.5-4.6-21.4-19.1-21.4s-24.2,7.4-26.4,20.2l-7.8,41.5h5.1s.6-3.6,5.2-3.6h340.2c1.1,0,2.1-.8,2.3-1.9l5.3-26.7c1.6-9.1-3.4-14.9-12.8-14.9h0ZM89.5,247c2-11.3,7.5-16.7,20.7-16.7s16.7,5.8,14.8,16.7c-1.8,10.3-9.2,16.4-19.8,16.4s-17.3-7.2-15.7-16.4Z"/>
      <path class="st0" d="M305.3,276.7c1.6,0,3.3-.2,5-.5h.2c2.5-.5,4.5-1.4,5.9-2.2l.7-.4c5.5-3.2,9.3-8.7,10.7-15.3,1.3-6,.1-11.1-3.3-14.4-1.1-.2-2.3-.2-3.4-.1,4.2,2.8,5.9,8.1,4.5,14.5-1.4,6.8-5.6,12.2-11.4,14.9h0s-5,2.7-11.7,1.6h-.7v-.2c-7.3-1.6-10.7-7.8-8.9-16.3,1.9-8.7,8.1-15,16.4-16.4.7-.4,2-1.2,3.8-2-11.1,0-20.2,7.4-22.5,18.4s3.6,18.4,14.7,18.4h0Z"/>
      <path class="st0" d="M311.3,243.1c-5.5,3.2-9.3,8.7-10.7,15.3-1.3,6,0,11.1,3.3,14.4,1.1.1,2.3.2,3.4.1-4.2-2.8-5.9-8.1-4.6-14.5,1.5-6.9,5.8-12.4,11.8-15.1h.1c1.3-.7,4.9-2,9.5-1.6h.3c.5,0,.9.1,1.3.2h.7c7.3,1.8,10.7,7.9,8.9,16.5-1.9,8.7-8.1,15-16.4,16.4-.7.4-2,1.2-3.8,2,11.1,0,20.1-7.4,22.5-18.4,2.3-11-3.6-18.4-14.7-18.4s-3.3.2-4.9.5h-.2c-2.5.5-4.6,1.4-6,2.2l-.6.4h.1Z"/>
    </g>
  </g>
</svg>