<?xml version="1.0" encoding="UTF-8"?>
<svg id="Layer_2" xmlns="http://www.w3.org/2000/svg" version="1.1" viewBox="0 0 512 512">
  <!-- Generator: Adobe Illustrator 29.1.0, SVG Export Plug-In . SVG Version: 2.1.0 Build 142)  -->
  <defs>
    <style>
      .st0 {
        fill: #2b2c2b;
      }

      .st1 {
        fill: none;
      }

      .st2 {
        fill: #231f20;
      }
    </style>
  </defs>
  <g id="Background">
    <rect class="st1" y="128" width="512" height="256"/>
  </g>
  <g id="Logo">
    <g>
      <path class="st0" d="M125.3,276.5h2.9c1.2,0,2.1-.8,2.3-2l1.4-7.9h19.3c0,0-1.7,9.9-1.7,9.9h2.9c1.1,0,2.1-.8,2.3-2l6-33.8h-5.6c-15.3,0-24.9,8-27.6,23l-2.3,12.8h0ZM153.4,245.3h1.6l-3,16.9h-19.3c2.3-10.9,9.3-16.9,20.6-16.9Z"/>
      <path class="st0" d="M161.6,276.5c1.1,0,2.1-.8,2.3-2l3.6-20.2c1.1-6.1,5.6-9.6,12.3-9.6s9.5,2.8,8.6,7.9c-.9,5.2-5.2,7.8-11.5,7.8h-1.3l-.8,4.5h1.3c5,0,7.2,1.5,8.1,5.4l1.1,4.4c.3,1.1,1.2,1.8,2.3,1.8h3.5l-2.4-8.9c-.8-3-3.2-4.8-6.4-4.8v-.5c4.8,0,9.8-3.5,11-10,1.3-7.5-3.6-12.2-12.7-12.2s-16.4,5.6-17.9,14.2l-3.9,22.1h2.9,0Z"/>
      <path class="st0" d="M202.6,276.5h2.8c1.2,0,2.1-.8,2.3-2l5.2-29.4h11.2c1.2,0,2.1-.8,2.3-2l.4-2.5h-31.2l-.8,4.4h13.2l-5.5,31.3h0Z"/>
      <path class="st0" d="M246.9,266.7c-.7,3.9-4.4,5.9-11.7,5.9s-9.3-1.6-11.7-2.5l-.8,4.9c3.5,1.4,6.7,2,12,2,9.7,0,15.9-3.5,17.1-10.6,2.6-14.6-23.2-6.2-21.5-15.9.7-3.9,4.4-6,11.7-6s9.3,1.6,11.7,2.5l.8-4.9c-3.6-1.4-6.8-2-12-2-9.7,0-15.9,3.5-17.1,10.6-2.6,14.6,23.2,6.2,21.5,15.9Z"/>
      <path class="st0" d="M264.5,274.5l2.5-14.3h17.9c1.2,0,2.1-.8,2.3-2l.2-1.3h-19.9l2.3-12.9h20.8c1.2,0,2.1-.8,2.3-2l.2-1.4h-22.3c-2.5,0-4.4,1.6-4.8,4.1l-1.5,8.6c-.5,2.9-.9,4.9,2,4.9h.3v.5c-2,0-3.5,1.3-3.9,3.2l-2.5,14.5h1.6c1.2,0,2.1-.8,2.3-2Z"/>
      <path class="st0" d="M342.3,274.6l3.6-20.2c1.2-7,6.2-10.8,13.7-10.8s10.6,2.9,9.6,8.5c-1,5.7-5.6,8.4-12.7,8.4h-1.5l-.6,3.3h1.6c6.1,0,8.7,1.7,9.6,6.4l.8,4.4c.2,1.1,1.2,2,2.3,2h1.9l-2.1-9.2c-.7-3.3-3.2-5.2-6.6-5.2v-.5c5.5,0,9.9-3.9,10.9-9.7,1.3-7.4-3.5-11.8-12.6-11.8s-16.4,5.6-17.9,14.2l-3.9,22.1h1.6c1.1,0,2.1-.8,2.3-1.9h0Z"/>
      <path class="st0" d="M422.1,240.2c-7,0-13.8,3.5-15.1,7.8h-.5c.3-4.4-5.1-7.8-12-7.8s-16.8,5.9-18.4,14.9l-3.8,21.4h1.6c1.2,0,2.1-.8,2.3-2l3.4-19.6c1.2-7.1,6.6-11.4,13.9-11.4s11.3,4.4,10.1,11.4l-3.8,21.6h1.6c1.2,0,2.1-.8,2.3-2l3.5-19.6c1.2-7.1,6.6-11.4,13.9-11.4s11.3,4.4,10.1,11.4l-5.1,25.8H83.5l3.8-23.8h.3v.4c-1.1,6,6.6,9.9,15.4,9.9,14.2,0,24.7-7,27.1-20.2,2.4-13.5-4.6-21.4-19.1-21.4s-24.2,7.4-26.4,20.2l-7.8,41.5h5.1s.6-3.6,5.2-3.6h340.2c1.1,0,2.1-.8,2.3-1.9l5.3-26.7c1.6-9.1-3.4-14.9-12.8-14.9h0ZM89.5,247c2-11.3,7.5-16.7,20.7-16.7s16.7,5.8,14.8,16.7c-1.8,10.3-9.2,16.4-19.8,16.4s-17.3-7.2-15.7-16.4Z"/>
      <path class="st0" d="M305.3,276.7c1.6,0,3.3-.2,5-.5h.2s0,0,0,0c2.5-.5,4.5-1.4,5.9-2.2l.7-.4c5.5-3.2,9.3-8.7,10.7-15.3,1.3-6,.1-11.1-3.3-14.4-1.1-.2-2.3-.2-3.4-.1,4.2,2.8,5.9,8.1,4.5,14.5-1.4,6.8-5.6,12.2-11.4,14.9h0c0,0-5,2.7-11.7,1.6h-.7v-.2c-7.3-1.6-10.7-7.8-8.9-16.3,1.9-8.7,8.1-15,16.4-16.4.7-.4,2-1.2,3.8-2-11.1,0-20.2,7.4-22.5,18.4-2.3,11,3.6,18.4,14.7,18.4h0Z"/>
      <path class="st0" d="M311.3,243.1c-5.5,3.2-9.3,8.7-10.7,15.3-1.3,6,0,11.1,3.3,14.4,1.1.1,2.3.2,3.4.1-4.2-2.8-5.9-8.1-4.6-14.5,1.5-6.9,5.8-12.4,11.8-15.1h.1c1.3-.7,4.9-2,9.5-1.6h.3c.5,0,.9.1,1.3.2h.7c7.3,1.8,10.7,7.9,8.9,16.5-1.9,8.7-8.1,15-16.4,16.4-.7.4-2,1.2-3.8,2,11.1,0,20.1-7.4,22.5-18.4,2.3-11-3.6-18.4-14.7-18.4s-3.3.2-4.9.5h-.2s0,0,0,0c-2.5.5-4.6,1.4-6,2.2l-.6.4h0Z"/>
    </g>
    <g>
      <path class="st2" d="M249.1,327.9h6.8v1.5h-5.1v3.7h4.3v1.4h-4.3v3.4h5.3v1.4h-6.9v-11.4h0Z"/>
      <path class="st2" d="M257.5,330.2h1.4v.9c.7-.7,1.6-1.1,2.5-1.1,2.1,0,3,1.1,3,3.1v6.2h-1.6v-6c0-1.3-.4-1.9-1.6-1.9s-1.6.5-2,1.1v6.8h-1.6v-9.1h0Z"/>
      <path class="st2" d="M266.4,339.3h1.6c0,.9.6,1.2,1.9,1.2s1.9-.5,1.9-1.9v-1c-.6.6-1.5,1-2.4,1-2.1,0-3-1.1-3-3.2v-2.2c0-2.1.9-3.3,3-3.3s1.9.5,2.5,1.1v-.9h1.5v8.7c0,2-1.4,3-3.5,3s-3.4-.9-3.4-2.4v-.2h0ZM267.9,335.3c0,1.4.5,2,1.7,2s1.6-.5,2.1-1v-3.7c-.5-.6-1.3-1.1-2.1-1.1-1.2,0-1.7.7-1.7,2.1v1.8h0Z"/>
      <path class="st2" d="M275.4,331.5h-.9v-1.3h2.5v9.1h-1.6v-7.8ZM275.2,328.1c0-.7.4-1,1-1s1,.3,1,1-.4.9-1,.9-1-.3-1-.9Z"/>
      <path class="st2" d="M279,330.2h1.4v.9c.7-.7,1.6-1.1,2.5-1.1,2.1,0,3,1.1,3,3.1v6.2h-1.6v-6c0-1.3-.4-1.9-1.6-1.9s-1.6.5-2,1.1v6.8h-1.6v-9.1h0Z"/>
      <path class="st2" d="M287.8,333.4c0-2.1,1.4-3.4,3.5-3.4s3.5,1.3,3.5,3.4v1.7h-5.5v.9c0,1.4.7,2.1,1.9,2.1s1.9-.8,1.9-1.7h0c0-.1,1.6-.1,1.6-.1v.3c0,1.5-1.3,2.9-3.5,2.9s-3.5-1.3-3.5-3.4v-2.7h0ZM293.3,333.9v-.3c0-1.4-.7-2.2-1.9-2.2s-1.9.7-1.9,2.2v.3h3.9Z"/>
      <path class="st2" d="M296.7,333.4c0-2.1,1.4-3.4,3.5-3.4s3.5,1.3,3.5,3.4v1.7h-5.5v.9c0,1.4.7,2.1,1.9,2.1s1.9-.8,1.9-1.7h0c0-.1,1.6-.1,1.6-.1v.3c0,1.5-1.3,2.9-3.5,2.9s-3.5-1.3-3.5-3.4v-2.7h0ZM302.2,333.9v-.3c0-1.4-.7-2.2-1.9-2.2s-1.9.7-1.9,2.2v.3h3.9Z"/>
      <path class="st2" d="M305.8,330.2h1.4v1.1c.6-.7,1.6-1.3,2.5-1.3h.2v1.4h-.3c-.9,0-1.7.5-2.2,1.2v6.6h-1.6v-9.1h0Z"/>
      <path class="st2" d="M310.5,333.4c0-2.1,1.4-3.4,3.5-3.4s3.5,1.3,3.5,3.4v1.7h-5.5v.9c0,1.4.7,2.1,1.9,2.1s1.9-.8,1.9-1.7h0c0-.1,1.6-.1,1.6-.1v.3c0,1.5-1.3,2.9-3.5,2.9s-3.5-1.3-3.5-3.4v-2.7h0ZM316,333.9v-.3c0-1.4-.7-2.2-1.9-2.2s-1.9.7-1.9,2.2v.3h3.9Z"/>
      <path class="st2" d="M326.4,339.3h-1.4v-.9c-.7.6-1.6,1.1-2.6,1.1-2.1,0-3-1.2-3-3.3v-2.9c0-2.1.9-3.3,3-3.3s1.8.4,2.4,1v-3.9h1.6v12.2ZM321,336c0,1.4.5,2.1,1.7,2.1s1.6-.5,2.1-1.1v-4.5c-.5-.6-1.3-1.1-2.1-1.1-1.2,0-1.7.7-1.7,2.1v2.5h0Z"/>
      <path class="st2" d="M333.1,331.5h-1v-1.3h1v-.3c0-2,1.2-3,3.3-3s1,0,1.4.2v1.3c-.4-.1-.9-.1-1.3-.1-1.2,0-1.7.6-1.7,1.6v.3h2.7v1.3h-2.7v7.8h-1.6v-7.8h0Z"/>
      <path class="st2" d="M338.2,333.4c0-2.1,1.4-3.4,3.5-3.4s3.5,1.3,3.5,3.4v2.7c0,2.1-1.4,3.4-3.5,3.4s-3.5-1.3-3.5-3.4v-2.7ZM339.8,335.9c0,1.4.7,2.2,1.9,2.2s1.9-.8,1.9-2.2v-2.3c0-1.4-.7-2.2-1.9-2.2s-1.9.8-1.9,2.2v2.3Z"/>
      <path class="st2" d="M347.2,330.2h1.4v1.1c.6-.7,1.6-1.3,2.5-1.3h.2v1.4h-.3c-.9,0-1.7.5-2.2,1.2v6.6h-1.6v-9.1h0Z"/>
      <path class="st2" d="M357,327.9h4.1c2.3,0,3.6,1,3.6,3v.6c0,.8-.3,1.7-1.1,2.1.8.3,1.4,1.2,1.4,2.3v.6c0,1.6-1.1,2.8-3.4,2.8h-4.6v-11.4h0ZM361.5,333c.9,0,1.5-.5,1.5-1.7v-.2c0-1.3-.6-1.7-1.9-1.7h-2.5v3.6h2.9,0ZM361.5,337.9c1.2,0,1.8-.7,1.8-1.6v-.3c0-1-.6-1.7-1.6-1.7h-3v3.5h2.8,0Z"/>
      <path class="st2" d="M366.5,330.2h1.6v6c0,1.3.3,1.9,1.5,1.9s1.6-.5,2.1-1.1v-6.8h1.6v9.1h-1.4v-.9c-.7.7-1.6,1.1-2.5,1.1-2.1,0-2.8-1-2.8-3.1v-6.2Z"/>
      <path class="st2" d="M375,336.4h1.6c0,1,.7,1.8,2,1.8s1.8-.6,1.8-1.4h0c0-1-.9-1.3-2.2-1.5-1.6-.2-3-.8-3-2.5v-.3c0-1.5,1.1-2.6,3.3-2.6s3.3,1.3,3.3,2.8v.3h-1.5c0-1-.4-1.8-1.8-1.8s-1.7.6-1.7,1.3h0c0,1,.8,1.3,2.1,1.5,1.6.2,3.1.7,3.1,2.4v.3c0,1.5-1.2,2.6-3.4,2.6s-3.6-1.2-3.6-2.8v-.3h0Z"/>
      <path class="st2" d="M383.7,331.5h-.9v-1.3h2.5v9.1h-1.6v-7.8ZM383.5,328.1c0-.7.4-1,1-1s1,.3,1,1-.4.9-1,.9-1-.3-1-.9Z"/>
      <path class="st2" d="M387.3,330.2h1.4v.9c.7-.7,1.6-1.1,2.5-1.1,2.1,0,3,1.1,3,3.1v6.2h-1.6v-6c0-1.3-.4-1.9-1.6-1.9s-1.6.5-2,1.1v6.8h-1.6v-9.1h0Z"/>
      <path class="st2" d="M396.1,333.4c0-2.1,1.4-3.4,3.5-3.4s3.5,1.3,3.5,3.4v1.7h-5.5v.9c0,1.4.7,2.1,1.9,2.1s1.9-.8,1.9-1.7h0c0-.1,1.6-.1,1.6-.1v.3c0,1.5-1.3,2.9-3.5,2.9s-3.5-1.3-3.5-3.4v-2.7h0ZM401.6,333.9v-.3c0-1.4-.7-2.2-1.9-2.2s-1.9.7-1.9,2.2v.3h3.9Z"/>
      <path class="st2" d="M404.8,336.4h1.6c0,1,.7,1.8,2,1.8s1.8-.6,1.8-1.4h0c0-1-.9-1.3-2.2-1.5-1.6-.2-3-.8-3-2.5v-.3c0-1.5,1.1-2.6,3.3-2.6s3.3,1.3,3.3,2.8v.3h-1.5c0-1-.4-1.8-1.8-1.8s-1.7.6-1.7,1.3h0c0,1,.8,1.3,2.1,1.5,1.6.2,3.1.7,3.1,2.4v.3c0,1.5-1.2,2.6-3.4,2.6s-3.6-1.2-3.6-2.8v-.3h0Z"/>
      <path class="st2" d="M413.1,336.4h1.6c0,1,.7,1.8,2,1.8s1.8-.6,1.8-1.4h0c0-1-.9-1.3-2.2-1.5-1.6-.2-3-.8-3-2.5v-.3c0-1.5,1.1-2.6,3.3-2.6s3.3,1.3,3.3,2.8v.3h-1.5c0-1-.4-1.8-1.8-1.8s-1.7.6-1.7,1.3h0c0,1,.8,1.3,2.1,1.5,1.6.2,3.1.7,3.1,2.4v.3c0,1.5-1.2,2.6-3.4,2.6s-3.6-1.2-3.6-2.8v-.3h0Z"/>
      <path class="st2" d="M421.3,338.5c0-.7.4-1,1-1s1,.3,1,1-.4,1-1,1-1-.3-1-1Z"/>
    </g>
    <g>
      <path class="st2" d="M297.4,344.8h3.1c1.7,0,2.6,1.1,2.3,2.8v.6c-.3,1.7-1.5,2.8-3.2,2.8h-2.2l-.4,2.7h-1l1.2-8.9h0ZM299.8,350.1c1.2,0,1.9-.7,2.1-2v-.3c.2-1.3-.3-2-1.5-2h-2.2l-.6,4.4h2.2Z"/>
      <path class="st2" d="M303.9,349c.2-1.6,1.4-2.6,3-2.6s2.5,1,2.2,2.6l-.3,2.2c-.2,1.6-1.4,2.6-3,2.6s-2.5-1-2.2-2.6l.3-2.2h0ZM304.5,351.1c-.2,1.3.3,1.9,1.4,1.9s1.8-.7,2-1.9l.3-1.9c.2-1.3-.3-1.9-1.4-1.9s-1.8.7-2,1.9l-.3,1.9Z"/>
      <path class="st2" d="M310,346.6h1l.8,6,2.4-6h1l.7,6,2.5-6h1l-3.2,7.1h-1l-.7-5.8-2.4,5.8h-1l-1.2-7.1h0Z"/>
      <path class="st2" d="M324.3,351.6c-.2,1.1-1.2,2.2-2.9,2.2s-2.5-1-2.2-2.6l.3-2.2c.2-1.6,1.4-2.6,3-2.6s2.3.9,2.3,2-.5,1.8-1.6,1.8h-2.9v.7c-.3,1.3.2,1.9,1.3,1.9s1.8-.7,1.9-1.5h0c0,0,.9,0,.9,0v.2h0ZM323.1,349.6c.5,0,.7-.2.7-.9s-.5-1.4-1.5-1.4-1.8.7-2,1.9v.3c0,0,2.7,0,2.7,0h0Z"/>
      <path class="st2" d="M326.7,346.6h.8v.9c.4-.6,1.2-1,2-1h0v.8h-.3c-.7,0-1.5.5-1.9,1.1l-.7,5.3h-.9l1-7.1Z"/>
      <path class="st2" d="M334.5,351.6c-.2,1.1-1.2,2.2-2.9,2.2s-2.5-1-2.2-2.6l.3-2.2c.2-1.6,1.4-2.6,3-2.6s2.3.9,2.3,2-.5,1.8-1.6,1.8h-2.9v.7c-.3,1.3.2,1.9,1.3,1.9s1.8-.7,1.9-1.5h0c0,0,.9,0,.9,0v.2h0ZM333.3,349.6c.5,0,.7-.2.7-.9s-.5-1.4-1.5-1.4-1.8.7-2,1.9v.3c0,0,2.7,0,2.7,0h0Z"/>
      <path class="st2" d="M338.1,353.8c-1.5,0-2.2-.9-2-2.5l.3-2.3c.2-1.6,1.2-2.5,2.7-2.5s1.4.3,1.8.8l.5-3.1h.9l-1.2,8.4c0,.3,0,.5.3.5s.3,0,.4,0v.7c-.3,0-.6.1-.8.1-.5,0-.8-.2-.8-.9-.6.5-1.3.9-2.1.9h0ZM337.1,351.1c-.2,1.2.1,1.9,1.2,1.9s1.5-.5,2-1l.5-3.7c-.3-.5-1-1-1.7-1-1.1,0-1.6.7-1.8,1.9l-.3,2h0Z"/>
      <path class="st2" d="M347.5,344.2h.9l-.4,3.1c.6-.5,1.3-.8,2-.8,1.5,0,2.2.9,2,2.5l-.3,2.3c-.2,1.6-1.2,2.5-2.7,2.5s-1.4-.3-1.8-.9c0,.2-.1.5-.2.7h-.8l1.3-9.5h0ZM347.3,352c.3.5,1,1,1.7,1,1.1,0,1.6-.7,1.8-1.9l.3-2c.2-1.2-.1-1.9-1.2-1.9s-1.5.5-2,1l-.5,3.7h0Z"/>
      <path class="st2" d="M352.5,354.9c.7,0,1.4-.4,1.8-1.2l-1.4-7.1h1l1.1,6,2.8-6h1l-3.5,7.3c-.6,1.2-1.6,1.9-2.7,1.8v-.8Z"/>
      <path class="st2" d="M363,344.8h1l-1.2,8.9h-1l1.2-8.9Z"/>
      <path class="st2" d="M365.3,346.6h.8v.7c.6-.5,1.2-.9,2-.9,1.5,0,2.2.8,2,2.4l-.7,4.8h-.9l.7-4.7c.2-1.2-.1-1.8-1.2-1.8s-1.5.5-1.9,1l-.8,5.4h-.9l1-7.1h0Z"/>
      <path class="st2" d="M371.9,347.4h-.8v-.8h.9l.3-1.8h.8l-.2,1.8h2.2v.8h-2.3l-.6,4c-.2,1.1.2,1.7,1.2,1.7s.7,0,1-.1v.7c-.4,0-.8.2-1.1.2-1.5,0-2.2-.7-2-2.3l.6-4.1h0Z"/>
      <path class="st2" d="M380.5,351.6c-.2,1.1-1.2,2.2-2.9,2.2s-2.5-1-2.2-2.6l.3-2.2c.2-1.6,1.4-2.6,3-2.6s2.3.9,2.3,2-.5,1.8-1.6,1.8h-2.9v.7c-.3,1.3.2,1.9,1.3,1.9s1.8-.7,1.9-1.5h0c0,0,.9,0,.9,0v.2h0ZM379.3,349.6c.5,0,.7-.2.7-.9s-.5-1.4-1.5-1.4-1.8.7-2,1.9v.3c0,0,2.7,0,2.7,0h0Z"/>
      <path class="st2" d="M383.2,344.2h.9l-1.3,9.5h-.9l1.3-9.5Z"/>
      <path class="st2" d="M385.8,344.2h.9l-1.3,9.5h-.9l1.3-9.5Z"/>
      <path class="st2" d="M388.1,346.6h.9l-1,7.1h-.9l1-7.1ZM388.1,345c0-.5.3-.8.7-.8s.5.2.5.5c0,.5-.3.8-.7.8s-.5-.2-.5-.5h0Z"/>
      <path class="st2" d="M391.1,355.7c-1.2,0-2-.6-2-1.6s.4-1.6,1.2-1.9c0-.1-.1-.4-.1-.5,0-.4.2-.8.5-1.1-.3-.3-.5-.8-.5-1.4v-.8c.3-1,1.2-1.9,2.6-1.9s1.1.1,1.4.4c.4-.2.6-.6.6-1.2h0c0,0,.9,0,.9,0h0c0,.9-.5,1.4-1,1.8,0,.2.1.6,0,.8v.8c-.3,1-1.2,1.9-2.6,1.9s-.6,0-.8-.1c-.1.1-.3.3-.3.6s0,.3.1.4c.1,0,.3,0,.5,0h1c1.2,0,2,.6,2,1.6s-1,2.2-2.5,2.2h-1ZM392.1,354.9c1.1,0,1.6-.4,1.6-1.3s-.4-.9-1.3-.9h-.7c-1.1,0-1.6.4-1.6,1.3s.4.9,1.3.9h.7ZM391.1,349c-.1.7.3,1.2,1.2,1.2s1.4-.5,1.5-1.2v-.6c.2-.7-.2-1.2-1.1-1.2s-1.4.5-1.5,1.2v.6Z"/>
      <path class="st2" d="M401,351.6c-.2,1.1-1.2,2.2-2.9,2.2s-2.5-1-2.2-2.6l.3-2.2c.2-1.6,1.4-2.6,3-2.6s2.3.9,2.3,2-.5,1.8-1.6,1.8h-2.9v.7c-.3,1.3.2,1.9,1.3,1.9s1.8-.7,1.9-1.5h0c0,0,.9,0,.9,0v.2h0ZM399.8,349.6c.5,0,.7-.2.7-.9s-.5-1.4-1.5-1.4-1.8.7-2,1.9v.3c0,0,2.7,0,2.7,0h0Z"/>
      <path class="st2" d="M403.4,346.6h.8v.7c.6-.5,1.2-.9,2-.9,1.5,0,2.2.8,2,2.4l-.7,4.8h-.9l.7-4.7c.2-1.2-.1-1.8-1.2-1.8s-1.5.5-1.9,1l-.8,5.4h-.9l1-7.1h0Z"/>
      <path class="st2" d="M409.7,349c.2-1.6,1.4-2.6,3-2.6s2.4.9,2.3,2.2v.2h-.9c.1-1-.3-1.6-1.5-1.6s-1.8.7-2,1.9l-.3,1.9c-.2,1.3.3,1.9,1.4,1.9s1.8-.6,1.9-1.5h0c0,0,.9,0,.9,0v.2c-.2,1.2-1.3,2.2-2.9,2.2s-2.5-1-2.2-2.6l.3-2.2h0Z"/>
      <path class="st2" d="M421.2,351.6c-.2,1.1-1.2,2.2-2.9,2.2s-2.5-1-2.2-2.6l.3-2.2c.2-1.6,1.4-2.6,3-2.6s2.3.9,2.3,2-.5,1.8-1.6,1.8h-2.9v.7c-.3,1.3.2,1.9,1.3,1.9s1.8-.7,1.9-1.5h0c0,0,.9,0,.9,0v.2h0ZM420,349.6c.5,0,.7-.2.7-.9s-.5-1.4-1.5-1.4-1.8.7-2,1.9v.3c0,0,2.7,0,2.7,0h0Z"/>
      <path class="st2" d="M422.2,353.3c0-.5.3-.8.7-.8s.5.2.5.5c0,.5-.3.8-.7.8s-.5-.2-.5-.5h0Z"/>
    </g>
  </g>
</svg>