<?xml version="1.0" encoding="UTF-8"?>
<svg id="Layer_2" data-name="Layer 2" xmlns="http://www.w3.org/2000/svg" viewBox="0 0 512 221">
  <defs>
    <style>
      .cls-1 {
        fill: none;
      }

      .cls-2 {
        fill: #f7fbfe;
      }
    </style>
  </defs>
  <g id="Background">
    <rect class="cls-1" width="512" height="221"/>
  </g>
  <g id="Tagline">
    <g>
      <g>
        <path class="cls-2" d="M85.27,85.27h13.35v2.87h-10.04v7.2h8.38v2.83h-8.38v6.57h10.29v2.83h-13.61v-22.3Z"/>
        <path class="cls-2" d="M101.71,89.73h2.8l.19,1.82c1.24-1.28,2.87-2.14,4.68-2.14,4.05,0,5.8,2.07,5.8,6.02v12.14h-3.16v-11.73c0-2.58-.79-3.73-3.18-3.73-1.59,0-3.06,1.05-3.98,2.17v13.29h-3.15v-17.84Z"/>
        <path class="cls-2" d="M119.17,107.58h3.09c0,1.72,1.18,2.45,3.66,2.45,2.23,0,3.63-.99,3.63-3.66v-1.88c-1.21,1.18-2.87,1.91-4.65,1.91-4.08,0-5.93-2.14-5.93-6.25v-4.37c0-4.11,1.85-6.37,5.93-6.37,1.85,0,3.63.89,4.84,2.14l.19-1.82h2.77v17.01c0,3.95-2.71,5.93-6.79,5.93-4.43,0-6.75-1.72-6.75-4.78v-.32ZM122.13,99.77c0,2.68.89,3.92,3.31,3.92,1.59,0,3.22-.95,4.11-2.07v-7.33c-.89-1.12-2.52-2.17-4.11-2.17-2.42,0-3.31,1.37-3.31,4.05v3.6Z"/>
        <path class="cls-2" d="M136.72,92.28l-1.75-.19v-2.36h4.91v17.84h-3.16v-15.29ZM136.3,85.62c0-1.37.73-1.94,1.88-1.94s1.94.57,1.94,1.94-.76,1.85-1.94,1.85-1.88-.54-1.88-1.85Z"/>
        <path class="cls-2" d="M143.88,89.73h2.8l.19,1.82c1.24-1.28,2.87-2.14,4.68-2.14,4.05,0,5.8,2.07,5.8,6.02v12.14h-3.16v-11.73c0-2.58-.79-3.73-3.18-3.73-1.59,0-3.06,1.05-3.98,2.17v13.29h-3.15v-17.84Z"/>
        <path class="cls-2" d="M161.11,96.01c0-4.11,2.68-6.6,6.95-6.6s6.95,2.48,6.95,6.6v3.28h-10.74v1.75c0,2.84,1.37,4.21,3.79,4.21,2.68,0,3.76-1.59,3.76-3.31v-.29h3.12v.57c0,2.9-2.48,5.67-6.88,5.67s-6.95-2.48-6.95-6.59v-5.29ZM171.85,96.97v-.67c0-2.77-1.31-4.24-3.79-4.24s-3.79,1.43-3.79,4.24v.67h7.58Z"/>
        <path class="cls-2" d="M178.57,96.01c0-4.11,2.68-6.6,6.94-6.6s6.95,2.48,6.95,6.6v3.28h-10.74v1.75c0,2.84,1.37,4.21,3.79,4.21,2.68,0,3.76-1.59,3.76-3.31v-.29h3.12v.57c0,2.9-2.48,5.67-6.88,5.67s-6.94-2.48-6.94-6.59v-5.29ZM189.31,96.97v-.67c0-2.77-1.31-4.24-3.79-4.24s-3.79,1.43-3.79,4.24v.67h7.58Z"/>
        <path class="cls-2" d="M196.22,89.73h2.74l.26,2.17c.96-1.47,2.87-2.48,4.59-2.48.09,0,.29,0,.35.03v2.8h-.54c-1.69,0-3.41,1.02-4.24,2.42v12.91h-3.15v-17.84Z"/>
        <path class="cls-2" d="M205.48,96.01c0-4.11,2.68-6.6,6.95-6.6s6.95,2.48,6.95,6.6v3.28h-10.74v1.75c0,2.84,1.37,4.21,3.79,4.21,2.68,0,3.76-1.59,3.76-3.31v-.29h3.12v.57c0,2.9-2.48,5.67-6.88,5.67s-6.95-2.48-6.95-6.59v-5.29ZM216.22,96.97v-.67c0-2.77-1.31-4.24-3.79-4.24s-3.79,1.43-3.79,4.24v.67h7.58Z"/>
        <path class="cls-2" d="M236.7,107.58h-2.77l-.19-1.81c-1.21,1.24-3,2.13-4.84,2.13-4.08,0-5.93-2.26-5.93-6.37v-5.73c0-4.11,1.85-6.37,5.93-6.37,1.78,0,3.54.8,4.65,1.95v-7.68h3.15v23.9ZM226.13,101.14c0,2.68.89,4.05,3.31,4.05,1.59,0,3.22-1.05,4.11-2.17v-8.73c-.93-1.12-2.58-2.17-4.11-2.17-2.42,0-3.31,1.37-3.31,4.05v4.97Z"/>
        <path class="cls-2" d="M249.7,92.28h-2.01v-2.55h2.01v-.54c0-3.89,2.39-5.83,6.44-5.83.93,0,1.95.09,2.71.32v2.61c-.73-.22-1.75-.29-2.55-.29-2.26,0-3.41,1.08-3.41,3.19v.54h5.23v2.55h-5.23v15.29h-3.19v-15.29Z"/>
        <path class="cls-2" d="M259.76,96.01c0-4.11,2.68-6.6,6.95-6.6s6.95,2.48,6.95,6.6v5.29c0,4.11-2.65,6.59-6.95,6.59s-6.95-2.48-6.95-6.59v-5.29ZM262.91,100.92c0,2.84,1.37,4.33,3.79,4.33s3.79-1.5,3.79-4.33v-4.52c0-2.83-1.34-4.33-3.79-4.33s-3.79,1.5-3.79,4.33v4.52Z"/>
        <path class="cls-2" d="M277.47,89.73h2.74l.26,2.17c.96-1.47,2.87-2.48,4.59-2.48.09,0,.29,0,.35.03v2.8h-.54c-1.69,0-3.41,1.02-4.24,2.42v12.91h-3.15v-17.84Z"/>
        <path class="cls-2" d="M296.52,85.27h8.09c4.56,0,7.01,1.91,7.01,5.8v1.11c0,1.53-.67,3.31-2.23,4.21,1.59.67,2.77,2.45,2.77,4.49v1.18c0,3.16-2.14,5.51-6.72,5.51h-8.92v-22.3ZM305.41,95.28c1.75,0,2.9-1.02,2.9-3.41v-.35c0-2.55-1.14-3.38-3.63-3.38h-4.85v7.14h5.58ZM305.37,104.74c2.42,0,3.44-1.28,3.44-3.06v-.48c0-1.97-1.08-3.25-3.09-3.25h-5.9v6.79h5.54Z"/>
        <path class="cls-2" d="M315.28,89.73h3.16v11.73c0,2.58.57,3.73,2.99,3.73,1.59,0,3.12-1.05,4.05-2.17v-13.29h3.16v17.84h-2.81l-.19-1.81c-1.24,1.27-3,2.13-4.81,2.13-4.14,0-5.54-2.07-5.54-6.02v-12.14Z"/>
        <path class="cls-2" d="M331.94,101.94h3.03v.29c0,1.66,1.31,3.19,3.98,3.19,2.39,0,3.5-1.21,3.5-2.68v-.22c0-1.78-1.75-2.29-4.3-2.64-3.06-.41-5.9-1.56-5.9-4.94v-.54c0-2.93,2.1-5.06,6.4-5.06s6.5,2.61,6.5,5.54v.51h-3v-.29c0-1.66-.86-3.19-3.5-3.19-2.29,0-3.25,1.15-3.25,2.61v.22c0,1.78,1.59,2.36,4.08,2.71,3.03.41,6.09,1.34,6.09,4.78v.6c0,2.87-2.33,5.16-6.63,5.16s-7.01-2.39-7.01-5.54v-.51Z"/>
        <path class="cls-2" d="M348.88,92.28l-1.75-.19v-2.36h4.9v17.84h-3.15v-15.29ZM348.47,85.62c0-1.37.73-1.94,1.88-1.94s1.94.57,1.94,1.94-.76,1.85-1.94,1.85-1.88-.54-1.88-1.85Z"/>
        <path class="cls-2" d="M356.05,89.73h2.8l.19,1.82c1.24-1.28,2.87-2.14,4.69-2.14,4.04,0,5.8,2.07,5.8,6.02v12.14h-3.15v-11.73c0-2.58-.8-3.73-3.19-3.73-1.59,0-3.06,1.05-3.98,2.17v13.29h-3.15v-17.84Z"/>
        <path class="cls-2" d="M373.28,96.01c0-4.11,2.68-6.6,6.95-6.6s6.95,2.48,6.95,6.6v3.28h-10.74v1.75c0,2.84,1.37,4.21,3.79,4.21,2.68,0,3.76-1.59,3.76-3.31v-.29h3.12v.57c0,2.9-2.48,5.67-6.88,5.67s-6.95-2.48-6.95-6.59v-5.29ZM384.02,96.97v-.67c0-2.77-1.31-4.24-3.79-4.24s-3.79,1.43-3.79,4.24v.67h7.58Z"/>
        <path class="cls-2" d="M390.23,101.94h3.03v.29c0,1.66,1.31,3.19,3.98,3.19,2.39,0,3.5-1.21,3.5-2.68v-.22c0-1.78-1.75-2.29-4.3-2.64-3.06-.41-5.9-1.56-5.9-4.94v-.54c0-2.93,2.1-5.06,6.4-5.06s6.5,2.61,6.5,5.54v.51h-3v-.29c0-1.66-.86-3.19-3.5-3.19-2.29,0-3.25,1.15-3.25,2.61v.22c0,1.78,1.59,2.36,4.08,2.71,3.03.41,6.09,1.34,6.09,4.78v.6c0,2.87-2.33,5.16-6.63,5.16s-7.01-2.39-7.01-5.54v-.51Z"/>
        <path class="cls-2" d="M406.47,101.94h3.03v.29c0,1.66,1.31,3.19,3.98,3.19,2.39,0,3.5-1.21,3.5-2.68v-.22c0-1.78-1.75-2.29-4.3-2.64-3.06-.41-5.9-1.56-5.9-4.94v-.54c0-2.93,2.1-5.06,6.4-5.06s6.5,2.61,6.5,5.54v.51h-3v-.29c0-1.66-.86-3.19-3.5-3.19-2.29,0-3.25,1.15-3.25,2.61v.22c0,1.78,1.59,2.36,4.08,2.71,3.03.41,6.09,1.34,6.09,4.78v.6c0,2.87-2.33,5.16-6.63,5.16s-7.01-2.39-7.01-5.54v-.51Z"/>
        <path class="cls-2" d="M422.53,106.01c0-1.37.76-2.01,1.88-2.01,1.18,0,1.97.64,1.97,2.01s-.79,1.91-1.97,1.91c-1.12,0-1.88-.6-1.88-1.91Z"/>
      </g>
      <g>
        <path class="cls-2" d="M179.85,118.38h6.1c3.32,0,5.06,2.1,4.61,5.4l-.17,1.19c-.47,3.3-2.8,5.41-6.12,5.41h-4.24l-.74,5.35h-1.86l2.43-17.35ZM184.51,128.67c2.26,0,3.69-1.41,4.06-4.02l.08-.55c.37-2.6-.67-3.99-2.92-3.99h-4.24l-1.21,8.55h4.24Z"/>
        <path class="cls-2" d="M192.59,126.66c.45-3.15,2.68-5.06,5.82-5.06s4.81,1.91,4.37,5.06l-.59,4.26c-.45,3.15-2.65,5.06-5.8,5.06s-4.83-1.91-4.39-5.06l.59-4.26ZM193.8,130.62c-.37,2.48.65,3.77,2.8,3.77s3.52-1.29,3.89-3.77l.49-3.67c.35-2.48-.67-3.77-2.8-3.77s-3.55,1.29-3.89,3.77l-.5,3.67Z"/>
        <path class="cls-2" d="M204.48,121.85h1.91l1.66,11.67,4.64-11.67h1.98l1.39,11.67,4.91-11.67h1.88l-6.22,13.88h-1.86l-1.44-11.35-4.71,11.35h-1.86l-2.28-13.88Z"/>
        <path class="cls-2" d="M232.63,131.67c-.32,2.18-2.41,4.31-5.63,4.31s-4.84-1.91-4.39-5.06l.6-4.26c.45-3.15,2.65-5.06,5.82-5.06,2.85,0,4.46,1.71,4.46,3.99s-.87,3.59-3.17,3.59h-5.7l-.22,1.44c-.35,2.48.67,3.77,2.82,3.77,2.36,0,3.5-1.44,3.72-2.98l.02-.15h1.71l-.05.4ZM230.24,127.63c1.02,0,1.44-.45,1.44-1.69,0-1.66-.99-2.75-2.88-2.75-2.16,0-3.54,1.29-3.89,3.77l-.1.67h5.43Z"/>
        <path class="cls-2" d="M237.23,121.85h1.54l-.1,1.68c.94-1.14,2.55-1.93,3.92-1.93h.17l-.22,1.63h-.3c-1.32,0-2.95,1.02-3.74,2.16l-1.47,10.34h-1.76l1.96-13.88Z"/>
        <path class="cls-2" d="M252.59,131.67c-.32,2.18-2.4,4.31-5.63,4.31s-4.83-1.91-4.39-5.06l.59-4.26c.45-3.15,2.65-5.06,5.82-5.06,2.85,0,4.46,1.71,4.46,3.99s-.87,3.59-3.17,3.59h-5.7l-.22,1.44c-.35,2.48.67,3.77,2.83,3.77,2.35,0,3.49-1.44,3.72-2.98l.02-.15h1.71l-.05.4ZM250.21,127.63c1.02,0,1.44-.45,1.44-1.69,0-1.66-.99-2.75-2.88-2.75-2.16,0-3.55,1.29-3.89,3.77l-.1.67h5.43Z"/>
        <path class="cls-2" d="M259.65,135.98c-3.02,0-4.34-1.79-3.89-4.93l.62-4.51c.45-3.15,2.25-4.93,5.28-4.93,1.44,0,2.73.62,3.52,1.59l.87-6.05h1.76l-2.33,16.46c-.08.5.1.87.59.87.25,0,.57-.05.79-.12l-.2,1.41c-.35.15-.87.22-1.31.22-.87,0-1.61-.45-1.63-1.71-1.19,1.04-2.63,1.71-4.07,1.71ZM257.57,130.72c-.35,2.38.3,3.67,2.43,3.67,1.39,0,3.02-1.02,3.89-1.98l1.02-7.24c-.62-.97-2.01-1.98-3.35-1.98-2.13,0-3.12,1.29-3.45,3.67l-.55,3.87Z"/>
        <path class="cls-2" d="M277.93,117.14h1.76l-.84,6.12c1.14-1.02,2.53-1.66,3.94-1.66,3.02,0,4.34,1.78,3.89,4.93l-.62,4.51c-.45,3.15-2.26,4.93-5.28,4.93-1.41,0-2.68-.67-3.57-1.71-.07.47-.22.99-.32,1.46h-1.56l2.6-18.59ZM277.56,132.41c.59.97,1.93,1.98,3.32,1.98,2.16,0,3.15-1.29,3.47-3.67l.55-3.87c.35-2.38-.3-3.67-2.45-3.67-1.39,0-3,1.02-3.87,1.98l-1.02,7.24Z"/>
        <path class="cls-2" d="M287.74,138.14c1.39.12,2.68-.69,3.42-2.33l-2.8-13.96h1.91l2.11,11.75,5.43-11.75h1.88l-6.89,14.33c-1.14,2.35-3.2,3.64-5.28,3.47l.22-1.51Z"/>
        <path class="cls-2" d="M308.4,118.38h1.86l-2.43,17.35h-1.86l2.43-17.35Z"/>
        <path class="cls-2" d="M312.86,121.85h1.56l-.1,1.46c1.19-1.04,2.53-1.71,3.94-1.71,3.02,0,4.29,1.54,3.87,4.69l-1.34,9.44h-1.76l1.29-9.12c.32-2.38-.25-3.42-2.41-3.42-1.39,0-2.9,1.02-3.77,1.98l-1.49,10.56h-1.76l1.96-13.88Z"/>
        <path class="cls-2" d="M325.8,123.41h-1.54l.22-1.56h1.54l.67-3.47h1.56l-.47,3.47h4.24l-.22,1.56h-4.24l-1.12,7.86c-.32,2.23.45,3.27,2.38,3.27.57,0,1.36-.05,1.96-.25l-.2,1.46c-.57.17-1.37.32-1.98.32-2.95,0-4.39-1.41-3.94-4.56l1.14-8.1Z"/>
        <path class="cls-2" d="M342.75,131.67c-.32,2.18-2.41,4.31-5.63,4.31s-4.84-1.91-4.39-5.06l.59-4.26c.45-3.15,2.65-5.06,5.83-5.06,2.85,0,4.46,1.71,4.46,3.99s-.87,3.59-3.17,3.59h-5.7l-.22,1.44c-.35,2.48.67,3.77,2.83,3.77,2.35,0,3.49-1.44,3.72-2.98l.02-.15h1.71l-.05.4ZM340.36,127.63c1.02,0,1.44-.45,1.44-1.69,0-1.66-.99-2.75-2.88-2.75-2.16,0-3.54,1.29-3.89,3.77l-.1.67h5.43Z"/>
        <path class="cls-2" d="M348,117.14h1.76l-2.6,18.59h-1.76l2.6-18.59Z"/>
        <path class="cls-2" d="M353.07,117.14h1.76l-2.6,18.59h-1.76l2.6-18.59Z"/>
        <path class="cls-2" d="M357.51,121.85h1.76l-1.96,13.88h-1.76l1.96-13.88ZM357.66,118.73c0-1.04.55-1.59,1.31-1.59.65,0,1.02.35,1.02,1.06,0,1.04-.55,1.54-1.36,1.54-.59,0-.97-.32-.97-1.02Z"/>
        <path class="cls-2" d="M363.53,139.69c-2.43,0-3.84-1.09-3.84-3.15,0-1.76.84-3.1,2.33-3.77-.17-.3-.25-.69-.25-1.07,0-.82.37-1.49.87-2.08-.67-.67-1.06-1.66-.92-2.7l.25-1.66c.3-2,2.18-3.67,4.88-3.67,1.16,0,2.1.3,2.78.82.77-.47,1.21-1.24,1.21-2.26v-.1h1.69v.22c0,1.61-.87,2.6-2.01,3.32.15.47.25,1.12.17,1.66l-.25,1.66c-.3,1.98-2.13,3.67-4.86,3.67-.62,0-1.14-.07-1.59-.22-.27.3-.52.64-.52,1.12,0,.27.1.62.22.84.25-.02.57-.05.87-.05h2.03c2.43,0,3.84,1.09,3.84,3.15,0,2.78-1.91,4.26-4.88,4.26h-2.03ZM365.46,138.16c2.18,0,3.15-.77,3.15-2.55,0-1.29-.84-1.78-2.55-1.78h-1.44c-2.13,0-3.15.72-3.15,2.53,0,1.29.84,1.81,2.55,1.81h1.44ZM363.53,126.63c-.2,1.44.59,2.41,2.25,2.41s2.75-.97,2.95-2.41l.15-1.09c.2-1.44-.57-2.38-2.26-2.38s-2.75.94-2.95,2.38l-.15,1.09Z"/>
        <path class="cls-2" d="M382.91,131.67c-.32,2.18-2.41,4.31-5.63,4.31s-4.84-1.91-4.39-5.06l.59-4.26c.45-3.15,2.65-5.06,5.83-5.06,2.85,0,4.46,1.71,4.46,3.99s-.87,3.59-3.17,3.59h-5.7l-.22,1.44c-.35,2.48.67,3.77,2.83,3.77,2.35,0,3.49-1.44,3.72-2.98l.02-.15h1.71l-.05.4ZM380.52,127.63c1.02,0,1.44-.45,1.44-1.69,0-1.66-.99-2.75-2.88-2.75-2.16,0-3.54,1.29-3.89,3.77l-.1.67h5.43Z"/>
        <path class="cls-2" d="M387.51,121.85h1.56l-.1,1.46c1.19-1.04,2.53-1.71,3.94-1.71,3.02,0,4.29,1.54,3.86,4.69l-1.34,9.44h-1.76l1.29-9.12c.32-2.38-.25-3.42-2.41-3.42-1.39,0-2.9,1.02-3.77,1.98l-1.49,10.56h-1.76l1.96-13.88Z"/>
        <path class="cls-2" d="M399.82,126.66c.45-3.15,2.68-5.06,5.83-5.06s4.76,1.84,4.41,4.29l-.05.4h-1.71l.02-.15c.25-1.73-.55-2.95-2.9-2.95-2.16,0-3.54,1.29-3.89,3.77l-.49,3.67c-.37,2.48.64,3.77,2.8,3.77,2.35,0,3.49-1.24,3.74-2.98l.02-.15h1.71l-.05.4c-.35,2.38-2.43,4.31-5.65,4.31s-4.84-1.91-4.39-5.06l.59-4.26Z"/>
        <path class="cls-2" d="M422.34,131.67c-.32,2.18-2.41,4.31-5.63,4.31s-4.84-1.91-4.39-5.06l.59-4.26c.45-3.15,2.65-5.06,5.83-5.06,2.85,0,4.46,1.71,4.46,3.99s-.87,3.59-3.17,3.59h-5.7l-.22,1.44c-.35,2.48.67,3.77,2.82,3.77,2.35,0,3.49-1.44,3.72-2.98l.02-.15h1.71l-.05.4ZM419.96,127.63c1.02,0,1.44-.45,1.44-1.69,0-1.66-.99-2.75-2.88-2.75-2.16,0-3.54,1.29-3.89,3.77l-.1.67h5.43Z"/>
        <path class="cls-2" d="M424.39,134.96c0-1.04.52-1.59,1.31-1.59.65,0,1.02.35,1.02,1.06,0,1.04-.52,1.54-1.39,1.54-.59,0-.94-.32-.94-1.02Z"/>
      </g>
    </g>
  </g>
</svg>